<svg width="26" height="26" viewBox="0 0 26 26" fill="none" xmlns="http://www.w3.org/2000/svg">
<path d="M14.3607 16.075L14.0072 16.4286L14.7143 17.1357L15.0678 16.7821L14.3607 16.075ZM18.1429 13L18.4964 13.3536L18.85 13L18.4964 12.6464L18.1429 13ZM15.0678 9.21788L14.7143 8.86432L14.0072 9.57143L14.3607 9.92498L15.0678 9.21788ZM15.0678 16.7821L18.4964 13.3536L17.7893 12.6464L14.3607 16.075L15.0678 16.7821ZM18.4964 12.6464L15.0678 9.21788L14.3607 9.92498L17.7893 13.3536L18.4964 12.6464ZM18.1429 12.5H7V13.5H18.1429V12.5ZM13 24.5C6.64873 24.5 1.5 19.3513 1.5 13H0.5C0.5 19.9036 6.09644 25.5 13 25.5V24.5ZM24.5 13C24.5 19.3513 19.3513 24.5 13 24.5V25.5C19.9036 25.5 25.5 19.9036 25.5 13H24.5ZM13 1.5C19.3513 1.5 24.5 6.64873 24.5 13H25.5C25.5 6.09644 19.9036 0.5 13 0.5V1.5ZM13 0.5C6.09644 0.5 0.5 6.09644 0.5 13H1.5C1.5 6.64873 6.64873 1.5 13 1.5V0.5Z" fill="#924CCE"/>
</svg>
